M48
; DRILL file {KiCad 8.0.4} date 2024-09-09T07:24:24+0200
; FORMAT={-:-/ absolute / inch / decimal}
; #@! TF.CreationDate,2024-09-09T07:24:24+02:00
; #@! TF.GenerationSoftware,Kicad,Pcbnew,8.0.4
; #@! TF.FileFunction,Plated,1,2,PTH
FMAT,2
INCH
; #@! TA.AperFunction,Plated,PTH,ViaDrill
T1C0.0118
; #@! TA.AperFunction,Plated,PTH,ComponentDrill
T2C0.0295
; #@! TA.AperFunction,Plated,PTH,ComponentDrill
T3C0.0315
; #@! TA.AperFunction,Plated,PTH,ComponentDrill
T4C0.0394
%
G90
G05
T1
X5.0986Y-1.9055
X5.138Y-3.7559
X5.2955Y-3.3425
X5.3348Y-3.2047
X5.3742Y-3.3228
X5.4333Y-1.8465
X5.4923Y-1.9055
X5.4923Y-2.4961
T2
X5.1364Y-2.9094
X5.1364Y-3.1654
X5.1864Y-2.9094
X5.1864Y-3.1654
X5.2364Y-2.9094
X5.2364Y-3.1654
T3
X5.0789Y-4.1102
X5.0789Y-4.3071
X5.0789Y-4.5236
X5.0789Y-4.7205
X5.0986Y-3.4803
X5.0986Y-3.8803
X5.1183Y-4.937
X5.1183Y-5.0354
X5.1183Y-5.2398
X5.1183Y-5.5398
X5.1514Y-1.8465
X5.1514Y-1.9843
X5.1514Y-2.122
X5.2167Y-4.2843
X5.2167Y-4.6843
X5.2333Y-4.1102
X5.2364Y-2.3976
X5.2364Y-2.5945
X5.3152Y-3.5591
X5.3152Y-3.6591
X5.3152Y-3.7591
X5.3152Y-3.8591
X5.3545Y-4.2843
X5.3545Y-4.6843
X5.4726Y-3.2441
X5.4923Y-2.3976
X5.4923Y-2.5945
X5.4923Y-4.2843
X5.4923Y-4.6843
X5.5514Y-1.8465
X5.5514Y-1.9843
X5.5514Y-2.122
X5.5711Y-3.2441
X5.6152Y-3.5591
X5.6152Y-3.6591
X5.6152Y-3.7591
X5.6152Y-3.8591
X5.6301Y-4.2843
X5.6301Y-4.6843
X5.6333Y-4.1102
T4
X5.1348Y-5.6654
X5.1939Y-1.6299
X5.2348Y-5.6654
X5.2939Y-1.6299
X5.3348Y-5.6654
X5.3939Y-1.6299
X5.412Y-4.9764
X5.412Y-5.0764
X5.412Y-5.1764
X5.412Y-5.2764
X5.412Y-5.3764
X5.4348Y-5.6654
X5.4939Y-1.6299
X5.512Y-4.9764
X5.512Y-5.0764
X5.512Y-5.1764
X5.512Y-5.2764
X5.512Y-5.3764
X5.5348Y-5.6654
M30
