M48
; DRILL file {KiCad 8.0.4} date 2024-09-09T07:16:22+0200
; FORMAT={-:-/ absolute / inch / decimal}
; #@! TF.CreationDate,2024-09-09T07:16:22+02:00
; #@! TF.GenerationSoftware,Kicad,Pcbnew,8.0.4
; #@! TF.FileFunction,Plated,1,2,PTH
FMAT,2
INCH
; #@! TA.AperFunction,Plated,PTH,ViaDrill
T1C0.0118
; #@! TA.AperFunction,Plated,PTH,ComponentDrill
T2C0.0315
; #@! TA.AperFunction,Plated,PTH,ComponentDrill
T3C0.0394
; #@! TA.AperFunction,Plated,PTH,ComponentDrill
T4C0.0480
; #@! TA.AperFunction,Plated,PTH,ComponentDrill
T5C0.0559
; #@! TA.AperFunction,Plated,PTH,ComponentDrill
T6C0.0563
; #@! TA.AperFunction,Plated,PTH,ComponentDrill
T7C0.0709
%
G90
G05
T1
X5.7972Y-4.376
X5.876Y-4.3012
X5.9272Y-4.5886
X5.939Y-2.8366
X6.0295Y-2.9232
X6.1909Y-3.6713
T2
X5.676Y-3.1201
X5.6988Y-2.3327
X6.076Y-3.1201
X6.0925Y-3.8762
X6.0925Y-3.9746
X6.0988Y-2.3327
T3
X5.6563Y-5.5413
X5.7154Y-1.5059
X5.7563Y-5.5413
X5.7677Y-2.1555
X5.7677Y-3.002
X5.7677Y-3.7323
X5.8154Y-1.5059
X5.8563Y-5.5413
X5.8661Y-2.1555
X5.8661Y-3.002
X5.8661Y-3.7323
X5.9154Y-1.5059
X5.9563Y-5.5413
X5.9646Y-2.1555
X5.9646Y-3.002
X5.9646Y-3.7323
X6.0154Y-1.5059
X6.0563Y-5.5413
T4
X5.611Y-4.4587
X5.611Y-4.872
X5.611Y-5.2854
T5
X5.7331Y-4.4587
X5.7331Y-4.872
X5.7331Y-5.2854
T6
X6.0598Y-4.4587
X6.0598Y-4.872
X6.0598Y-5.2854
T7
G00X5.6929Y-1.8858
M15
G01X5.6929Y-1.874
M16
G05
G00X5.6929Y-2.7323
M15
G01X5.6929Y-2.7205
M16
G05
G00X5.6929Y-3.4626
M15
G01X5.6929Y-3.4508
M16
G05
G00X6.0394Y-1.8858
M15
G01X6.0394Y-1.874
M16
G05
G00X6.0394Y-2.7323
M15
G01X6.0394Y-2.7205
M16
G05
G00X6.0394Y-3.4626
M15
G01X6.0394Y-3.4508
M16
G05
M30
